# xmcd
#
# Track frame offsets: 
#        150
#        21210
#        44518
#        59701
#        77854
#        93360
#        112836
#        134310
#        167105
#        182820
#        202115
#
# Disc length: 2919 seconds
#
# Revision: 0
# Processed by: cddbd v1.5.2PL0 Copyright (c) Steve Scherf et al.
# Submitted via: ExactAudioCopy v1.0b4
#
DISCID=9a0b650b
DTITLE=Doctor Ross - Live and Well (LP)
DYEAR=1900
DGENRE=Blues
TTITLE0=Chicago Breakdown
TTITLE1=30 - 20 Blues
TTITLE2=Got Somethin' To Tell
TTITLE3=Mama Blues
TTITLE4=Hobo Blues
TTITLE5=Boogie Disease No 3
TTITLE6=Trouble, Trouble
TTITLE7=Sweet Black Angel
TTITLE8=China Blues
TTITLE9=Little Schoolgirl
TTITLE10=Biscuit Bakin' Woman
EXTD=
EXTT0=
EXTT1=
EXTT2=
EXTT3=
EXTT4=
EXTT5=
EXTT6=
EXTT7=
EXTT8=
EXTT9=
EXTT10=
PLAYORDER=
